<?xml version="1.0" encoding="UTF-8"?>
<svg id="Capa_2" data-name="Capa 2" xmlns="http://www.w3.org/2000/svg" viewBox="0 0 46.89 33.34">
  <defs>
    <style>
      .cls-1 {
        fill: none;
        stroke: #f15c61;
        stroke-miterlimit: 10;
      }
    </style>
  </defs>
  <g id="Capa_1-2" data-name="Capa 1">
    <path class="cls-1" d="m36.77,22.96c-2.52,5.96-8.52,10.1-15.45,9.87-8.31-.27-15.21-7.06-15.6-15.37C5.28,8.17,12.68.5,21.87.5c6.57,0,12.23,3.92,14.76,9.55"/>
    <path class="cls-1" d="m21.24,25.18c-9.5,2.24-19.04,2.31-20.5-1.76-1.75-4.89,6.5-12.32,18.44-16.61,11.94-4.28,23.04-3.79,24.79,1.09"/>
    <polyline class="cls-1" points="17.6 22.95 21.24 25.18 19.4 29.03"/>
    <path class="cls-1" d="m25.8,23.04c-.34.01-.69-.01-1.03-.09l-5.19-3.54h6.24c.34.04.68-.03,1-.13.48-.15.83-.31.95-.37.57-.3,1.74-.81,3.76-1.65-.79-.5-1.45-.89-1.91-1.16-.53-.31-1.05-.63-1.58-.92-.93-.5-1.42-.7-1.39-.93.02-.16.29-.25.63-.35.5-.15,1.04-.22,1.41-.19.84.06,3.37.73,6.69,1.94.67-.29,1.33-.58,2-.87,1.79-.65,3.49-1.67,5.39-1.97,1.25-.16,2.55.23,3.49,1.06.67,1.04-1.17,1.43-1.8,1.85-1.75.88-3.55,1.66-5.31,2.5l-5,2.12c-1.65.59-3.26,1.34-4.94,1.82-1.08.38-2.24.84-3.4.89Z"/>
  </g>
</svg>