<?xml version="1.0" encoding="UTF-8"?>
<svg id="Capa_2" data-name="Capa 2" xmlns="http://www.w3.org/2000/svg" viewBox="0 0 125.93 33.34">
  <defs>
    <style>
      .cls-1 {
        fill: none;
        stroke: #489bd5;
        stroke-miterlimit: 10;
      }

      .cls-2 {
        letter-spacing: .02em;
      }

      .cls-3 {
        fill: #489bd5;
        font-family: YoungSerif-Regular, 'Young Serif';
        font-size: 9px;
      }

      .cls-4 {
        letter-spacing: 0em;
      }

      .cls-5 {
        letter-spacing: .02em;
      }

      .cls-6 {
        letter-spacing: 0em;
      }

      .cls-7 {
        letter-spacing: -.01em;
      }

      .cls-8 {
        letter-spacing: .01em;
      }

      .cls-9 {
        letter-spacing: -.02em;
      }

      .cls-10 {
        letter-spacing: -.03em;
      }

      .cls-11 {
        letter-spacing: -.02em;
      }

      .cls-12 {
        letter-spacing: 0em;
      }

      .cls-13 {
        letter-spacing: -.03em;
      }
    </style>
  </defs>
  <g id="Capa_1-2" data-name="Capa 1">
    <text class="cls-3" transform="translate(12.72 13)"><tspan class="cls-5" x="0" y="0">A</tspan><tspan class="cls-9" x="7.25" y="0">D</tspan><tspan class="cls-8" x="14.23" y="0">R</tspan><tspan class="cls-4" x="21.5" y="0">E</tspan><tspan class="cls-13" x="28.21" y="0">N</tspan><tspan class="cls-5" x="35.96" y="0">AL</tspan><tspan class="cls-12" x="49.68" y="0">I</tspan><tspan class="cls-10" x="53.43" y="0">N</tspan><tspan class="cls-2" x="61.18" y="0">A </tspan><tspan class="cls-5" x="4.83" y="10.8">&amp; TUR</tspan><tspan class="cls-11" x="36.85" y="10.8">I</tspan><tspan class="cls-6" x="40.33" y="10.8">S</tspan><tspan class="cls-7" x="46.84" y="10.8">M</tspan><tspan class="cls-2" x="56.02" y="10.8">O</tspan></text>
    <path class="cls-1" d="m115.81,22.96c-2.52,5.96-8.52,10.1-15.45,9.87-8.31-.27-15.21-7.06-15.6-15.37-.44-9.29,6.96-16.97,16.15-16.97,6.57,0,12.23,3.92,14.76,9.55"/>
    <path class="cls-1" d="m100.28,25.18c-9.5,2.24-19.04,2.31-20.5-1.76-1.75-4.89,6.5-12.32,18.44-16.61s23.04-3.79,24.79,1.09"/>
    <polyline class="cls-1" points="96.64 22.95 100.28 25.18 98.44 29.03"/>
    <path class="cls-1" d="m104.83,23.04c-.34.01-.69-.01-1.03-.09l-5.19-3.54h6.24c.34.04.68-.03,1-.13.48-.15.83-.31.95-.37.57-.3,1.74-.81,3.76-1.65-.79-.5-1.45-.89-1.91-1.16-.53-.31-1.05-.63-1.58-.92-.93-.5-1.42-.7-1.39-.93.02-.16.29-.25.63-.35.5-.15,1.04-.22,1.41-.19.84.06,3.37.73,6.69,1.94.67-.29,1.33-.58,2-.87,1.79-.65,3.49-1.67,5.39-1.97,1.25-.16,2.55.23,3.49,1.06.67,1.04-1.17,1.43-1.8,1.85-1.75.88-3.55,1.66-5.31,2.5l-5,2.12c-1.65.59-3.26,1.34-4.94,1.82-1.08.38-2.24.84-3.4.89Z"/>
  </g>
</svg>