<svg version="1.0" xmlns="http://www.w3.org/2000/svg" width="525.000000pt" height="278.000000pt" viewBox="0  0  525.000000  278.000000" preserveAspectRatio="xMidYMid meet">
<g transform="translate(0.000000,278.000000) scale(0.100000,-0.100000)" fill="#000000" stroke="none">
<path d="M2511  2164 c-61 -23 -134 -97 -156 -159 -10 -27 -35 -67 -56 -87 -45 -44 -65 -98 -49 -127  14 -27  61 -51  98 -51  18  0  51 -16  88 -42  96 -69  203 -80  302 -29  56  29  148  133  115  130 -5  0 -22 -19 -38 -42 -80 -109 -236 -139 -345 -65 -19  13 -33  27 -32  33  1  10  131  35  145  28  4 -2  2 -13 -4 -24 -6 -12 -8 -23 -6 -26  3 -3  15  14  27  37  12  23  20  43  18  44 -2  1 -20  9 -40  19 -40  18 -50  13 -21 -9  24 -17  16 -22 -47 -34 -98 -19 -109 -16 -132  38 -91  201  98  422  305  357  56 -18  116 -64  149 -115  9 -14  18 -22  22 -19  3  3 -6  21 -19  41 -29  42 -21  52  32  42  45 -8  74 -22  90 -43  11 -14  12 -14  13  1  0  28 -45  50 -118  55 -46  4 -80  13 -111  31 -55  32 -164  40 -230  16z m-169 -297 c3 -25  13 -59  22 -77  9 -18  16 -35  16 -38  0 -11 -86  10 -102  25 -27  25 -22  68  13  108  17  19  34  33  39  30  4 -2  10 -24  12 -48z"/>
...
</g>
</svg>
